# xmcd
#
# Track frame offsets: 
#        150
#        9255
#        19910
#        40256
#        57259
#        73030
#        88931
#        106603
#        123884
#        139993
#        156530
#        174040
#        190462
#        209615
#        221756
#        234062
#        249165
#
# Disc length: 3634 seconds
#
# Revision: 0
# Processed by: cddbd v1.5.2PL0 Copyright (c) Steve Scherf et al.
# Submitted via: ExactAudioCopy v0.95a5
#
DISCID=e60e3011
DTITLE=Various Artist - Bluesowa nowina
DYEAR=2000
DGENRE=blues
TTITLE0=Jan 'Kyks' Skrzek - Twoj blask ich poprowadzi
TTITLE1=Kidnaper - Pojdzmy wszyscy
TTITLE2=Cree - Weso³a nowina
TTITLE3=Grzegorz Kapo³ka - Gdy sliczna panna
TTITLE4=S³awek Wierzcholski i NZB - W³asnie ten dzien
TTITLE5=Queen Bee and Snake's Blues Quartet - Dzisiaj w Betlejem
TTITLE6=Mietek Blues Band - Chocby na jedn¹ noc
TTITLE7=Roman 'Pazur' Wojciechowski - Bog siê rodzi
TTITLE8=Riders - Mi³osc
TTITLE9=Cienkie Bolki - Blues dla Jezusa
TTITLE10=Monkey Business - Cicha noc
TTITLE11=Tortilla Flat - Z daleka
TTITLE12=Double Six - Jezus Malusienki
TTITLE13=Easy Rider - Choc na chwile
TTITLE14=Adam Lomania - Przybiezeli do Betlejem
TTITLE15=After Blues - Sen daltonisty
TTITLE16=Andrzej Urny - Gdy sie Chrystus rodzi
EXTD=
EXTT0=
EXTT1=
EXTT2=
EXTT3=
EXTT4=
EXTT5=
EXTT6=
EXTT7=
EXTT8=
EXTT9=
EXTT10=
EXTT11=
EXTT12=
EXTT13=
EXTT14=
EXTT15=
EXTT16=
PLAYORDER=
